<svg xmlns="http://www.w3.org/2000/svg" xmlns:xlink="http://www.w3.org/1999/xlink" viewBox="0 0 10.75 10.75"><defs><path id="a" d="M0 0h10.75v10.75H0z"/></defs><clipPath id="b"><use xlink:href="#a" overflow="visible"/></clipPath><path clip-path="url(#b)" fill="none" stroke="#E4EBF7" stroke-width=".75" stroke-linecap="round" stroke-linejoin="round" stroke-miterlimit="10" d="M10.375 2.09v6.876c0 .775-.654 1.409-1.453 1.409H1.828c-.799 0-1.453-.634-1.453-1.409V2.09m2.347 2.058h.591m1.767 0h.591m1.767 0h.59M2.722 6.167h.591m1.767 0h.591m1.767 0h.59M2.722 8.186h.591m1.767 0h.591m1.767 0h.59m2.347-6.096v-.369c0-.743-.603-1.346-1.346-1.346H1.721C.978.375.375.978.375 1.721v.369m0 0h10"/></svg>