<svg xmlns="http://www.w3.org/2000/svg" xmlns:xlink="http://www.w3.org/1999/xlink" viewBox="0 0 8.968 10.75"><defs><path id="a" d="M0 0h8.968v10.75H0z"/></defs><clipPath id="b"><use xlink:href="#a" overflow="visible"/></clipPath><path clip-path="url(#b)" fill="none" stroke="#E4EBF7" stroke-width=".75" stroke-linecap="round" stroke-linejoin="round" stroke-miterlimit="10" d="M3.601.375c-1.029 0-1.862 1.035-1.862 2.313 0 1.862.521 1.303.779 1.879.066.148.091.515 0 .649C1.762 6.323.375 5.47.375 7.581c0 .505 0 .813.681.982M3.601.375c.319 0 .62.1.883.276.143.096.276.215.393.352m.49 1.021c-1.028 0-1.862 1.035-1.862 2.313 0 1.862.521 1.303.779 1.878.066.148.091.516 0 .649-.756 1.109-2.142.255-2.142 2.366 0 .847 0 1.145 3.226 1.145"/><path clip-path="url(#b)" fill="none" stroke="#E4EBF7" stroke-width=".75" stroke-linecap="round" stroke-linejoin="round" stroke-miterlimit="10" d="M5.367 2.024c1.029 0 1.862 1.035 1.862 2.313 0 1.862-.521 1.303-.779 1.878-.065.148-.091.516 0 .649.756 1.109 2.144.255 2.144 2.366 0 .847 0 1.145-3.227 1.145"/></svg>