<svg xmlns="http://www.w3.org/2000/svg" viewBox="0 0 490 490"><g fill="#a8bec9"><path d="M439 133.7H50c-11.6 0-22.8 11.6-20.4 23.5l51 315.4c2 10.2 10.2 17.4 20.4 17.4h287.9c10.2 0 18.4-7.1 19.4-17.4l51-315.4c1.9-9.3-5.9-23.5-20.3-23.5zm-67.4 315.5H118.4L74.5 174.6h341l-43.9 274.6zm98-376.7H318.5V57.2C318.5 25.6 293 0 261.3 0h-32.7c-31.6 0-57.2 25.5-57.2 57.2v15.3h-151C9.2 72.5 0 81.7 0 92.9s9.2 20.4 20.4 20.4h449.2c11.2 0 20.4-9.2 20.4-20.4s-9.2-20.4-20.4-20.4zm-191.9 0h-65.3V57.2c0-9.2 7.1-16.3 16.3-16.3h32.7c9.2 0 16.3 7.1 16.3 16.3v15.3z"/><path d="M181.7 387.9c11.2 0 20.4-9.2 20.4-20.4V236.8c0-11.2-9.2-20.4-20.4-20.4s-20.4 9.2-20.4 20.4v130.7c0 11.2 9.2 20.4 20.4 20.4zm116.4 0c11.2 0 20.4-9.2 20.4-20.4V236.8c0-11.2-9.2-20.4-20.4-20.4s-20.4 9.2-20.4 20.4v130.7c0 11.2 9.2 20.4 20.4 20.4z"/></g></svg>