<svg xmlns="http://www.w3.org/2000/svg" xmlns:xlink="http://www.w3.org/1999/xlink" viewBox="0 0 10.75 10.75"><defs><path id="a" d="M0 0h10.75v10.75H0z"/></defs><clipPath id="b"><use xlink:href="#a" overflow="visible"/></clipPath><path clip-path="url(#b)" fill="none" stroke="#E4EBF7" stroke-width=".75" stroke-linecap="round" stroke-linejoin="round" stroke-miterlimit="10" d="M9.316 5.703v3.852c0 .453-.428.819-.953.819H2.387c-.526 0-.953-.366-.953-.819V5.703m8.173 0H1.143c-.641 0-.999-.574-.6-.963L4.774.6c.308-.3.895-.3 1.202 0l4.232 4.14c.397.388.041.963-.601.963z"/><path clip-path="url(#b)" fill="none" stroke="#E4EBF7" stroke-width=".75" stroke-linecap="round" stroke-linejoin="round" stroke-miterlimit="10" d="M5.801 8.877H4.95a.799.799 0 0 1-.797-.796v-.084c0-.438.359-.796.797-.796h.851c.438 0 .796.357.796.796v.084a.799.799 0 0 1-.796.796zM1.814 3.496V1.562c0-.234.222-.425.493-.425H2.9c.271 0 .493.191.493.425v.39"/></svg>