<svg xmlns="http://www.w3.org/2000/svg" width="14" height="14" viewBox="0 0 14 14"><path fill-rule="evenodd" clip-rule="evenodd" fill="#a8bec9" d="M11.055 13.366L8.239 10.57c-.794.426-1.684.687-2.634.687C2.505 11.257 0 8.74 0 5.633 0 2.525 2.505 0 5.605 0c3.083 0 5.597 2.526 5.597 5.633 0 .954-.259 1.841-.682 2.629l2.841 2.812a1.61 1.61 0 0 1 0 2.292 1.636 1.636 0 0 1-2.306 0zM5.605 1.71c-2.142 0-3.878 1.745-3.878 3.897a3.88 3.88 0 0 0 3.878 3.888 3.878 3.878 0 0 0 3.869-3.888c0-2.152-1.736-3.897-3.869-3.897z"/></svg>