<svg xmlns="http://www.w3.org/2000/svg" viewBox="0 0 384.989 384.989"><path fill="#a8bec9" d="M383.37 344.044c.602-4.042 13.342-101.175-43.778-168.015-35.092-41.071-89.241-63.556-159.161-65.782l-.373-67.526c0-4.644-2.683-8.866-6.869-10.863-4.199-1.961-9.167-1.396-12.764 1.54L4.427 161.424A12.089 12.089 0 0 0 0 170.735a11.977 11.977 0 0 0 4.391 9.311L160.4 309.289c3.585 2.971 8.602 3.585 12.764 1.588a12.01 12.01 0 0 0 6.893-10.875l.373-69.042c168.533-.12 180.515 107.864 180.924 112.327.517 6.063 4.355 10.791 10.442 10.984.144.012.277.012.409.012 5.956-.001 10.274-4.344 11.165-10.239zM159.546 210.219a12.036 12.036 0 0 0-3.537 8.517v55.797L31.026 170.808 156.009 68.045v54.052a12.02 12.02 0 0 0 12.03 12.03c68.452 0 120.748 19.826 153.206 57.457 24.409 28.319 35.634 62.979 39.471 91.743-26.274-35.898-72.278-76.549-192.665-76.621h-.024a12.005 12.005 0 0 0-8.481 3.513z"/></svg>