<svg xmlns="http://www.w3.org/2000/svg" xmlns:xlink="http://www.w3.org/1999/xlink" viewBox="0 0 10.75 10.685"><defs><path id="a" d="M0 0h10.75v10.684H0z"/></defs><clipPath id="b"><use xlink:href="#a" overflow="visible"/></clipPath><path clip-path="url(#b)" fill="none" stroke="#E4EBF7" stroke-width=".75" stroke-linecap="round" stroke-linejoin="round" stroke-miterlimit="10" d="M10.375 8.129c0 1.204-2.239 2.181-5 2.181s-5-.977-5-2.181"/><path clip-path="url(#b)" fill="none" stroke="#E4EBF7" stroke-width=".75" stroke-linecap="round" stroke-linejoin="round" stroke-miterlimit="10" d="M10.375 6.271c0 1.204-2.239 2.18-5 2.18s-5-.976-5-2.18"/><path clip-path="url(#b)" fill="none" stroke="#E4EBF7" stroke-width=".75" stroke-linecap="round" stroke-linejoin="round" stroke-miterlimit="10" d="M10.375 4.414c0 1.204-2.239 2.18-5 2.18s-5-.976-5-2.18"/><ellipse clip-path="url(#b)" fill="none" stroke="#E4EBF7" stroke-width=".75" stroke-linecap="round" stroke-linejoin="round" stroke-miterlimit="10" cx="5.375" cy="2.556" rx="5" ry="2.18"/><path clip-path="url(#b)" fill="none" stroke="#E4EBF7" stroke-width=".75" stroke-linecap="round" stroke-linejoin="round" stroke-miterlimit="10" d="M.375 2.556c0-1.204 2.239-2.18 5-2.18s5 .976 5 2.18m-.48.924c.309.283.48.599.48.933m-10 .001c0-.333.172-.649.479-.932m9.041 1.856c.309.283.48.599.48.933m-10 0c0-.333.172-.649.479-.932m9.041 1.856c.309.283.48.6.48.934m-10 0c0-.333.172-.648.479-.932"/></svg>