<svg xmlns="http://www.w3.org/2000/svg" xmlns:xlink="http://www.w3.org/1999/xlink" viewBox="0 0 10.75 10.75"><defs><path id="a" d="M0 0h10.75v10.75H0z"/></defs><clipPath id="b"><use xlink:href="#a" overflow="visible"/></clipPath><path clip-path="url(#b)" fill="none" stroke="#E4EBF7" stroke-width=".75" stroke-linecap="round" stroke-linejoin="round" stroke-miterlimit="10" d="M3.985 4.634H1.03a.657.657 0 0 1-.655-.655V1.03c0-.36.295-.655.655-.655h2.955c.36 0 .655.295.655.655v2.949c0 .36-.295.655-.655.655zm5.735 0H6.765a.657.657 0 0 1-.654-.655V1.03c0-.36.295-.655.654-.655H9.72c.36 0 .655.295.655.655v2.949c0 .36-.295.655-.655.655zm-5.735 5.741H1.03a.657.657 0 0 1-.655-.655V6.771c0-.36.295-.655.655-.655h2.955c.36 0 .655.295.655.655V9.72c0 .36-.295.655-.655.655zm5.735 0H6.765a.657.657 0 0 1-.654-.655V6.771c0-.36.295-.655.654-.655H9.72c.36 0 .655.295.655.655V9.72c0 .36-.295.655-.655.655z"/></svg>