<svg xmlns="http://www.w3.org/2000/svg" viewBox="0 0 16 14"><path fill="#a8bec9" d="M7.014 12.003h-.822A5.005 5.005 0 0 1 2.007 7.07c0-.831.213-1.608.574-2.297l.613.849a.909.909 0 0 0 1.613-.288l.488-1.756.673-2.422A.91.91 0 0 0 5.091.002L2.717.006.918.009a.91.91 0 0 0-.735 1.442l1.128 1.563A6.96 6.96 0 0 0 .009 7.071a6.997 6.997 0 0 0 5.916 6.915c.091.014.18.01.267-.001v.012h.822A.986.986 0 0 0 8 13.01v-.02a.986.986 0 0 0-.986-.987zm7.674-1.018a6.955 6.955 0 0 0 1.302-4.057A6.997 6.997 0 0 0 10.074.013a.947.947 0 0 0-.266.002V.002h-.822A.986.986 0 0 0 8 .989v.02c0 .545.441.987.986.987h.822a5.004 5.004 0 0 1 4.185 4.933c0 .831-.213 1.608-.573 2.298l-.613-.85a.909.909 0 0 0-1.613.289l-.488 1.756-.674 2.422a.91.91 0 0 0 .877 1.154l2.374-.003 1.798-.003a.91.91 0 0 0 .736-1.442l-1.129-1.565z"/></svg>