<?xml version="1.0" encoding="utf-8"?>
<!-- Generator: Adobe Illustrator 16.0.4, SVG Export Plug-In . SVG Version: 6.00 Build 0)  -->
<!DOCTYPE svg PUBLIC "-//W3C//DTD SVG 1.1//EN" "http://www.w3.org/Graphics/SVG/1.1/DTD/svg11.dtd">
<svg version="1.1" id="Слой_1" xmlns="http://www.w3.org/2000/svg" xmlns:xlink="http://www.w3.org/1999/xlink" x="0px" y="0px"
	 viewBox="0 0 10.75 10.75" enable-background="new 0 0 10.75 10.75" xml:space="preserve">
<g>
	<defs>
		<rect id="SVGID_1_" width="10.75" height="10.75"/>
	</defs>
	<clipPath id="SVGID_2_">
		<use xlink:href="#SVGID_1_"  overflow="visible"/>
	</clipPath>
	<path clip-path="url(#SVGID_2_)" fill="none" stroke="#E4EBF7" stroke-width="0.75" stroke-miterlimit="10" d="M5.375,10.375
		L5.375,10.375c-2.75,0-5-2.25-5-5s2.25-5,5-5s5,2.25,5,5S8.125,10.375,5.375,10.375z"/>

		<path clip-path="url(#SVGID_2_)" fill="none" stroke="#E4EBF7" stroke-width="0.75" stroke-linecap="round" stroke-linejoin="round" stroke-miterlimit="10" d="
		M4.115,3.295c0.22-0.471,0.698-0.797,1.252-0.797c0.763,0,1.381,0.619,1.381,1.382c0,0.465-0.23,0.876-0.582,1.127
		c0,0-0.734,0.716-0.734,1.784"/>
	<path clip-path="url(#SVGID_2_)" fill="#E4EBF7" d="M5.94,8.286c0,0.281-0.228,0.509-0.509,0.509S4.922,8.567,4.922,8.286
		S5.15,7.777,5.432,7.777S5.94,8.005,5.94,8.286"/>
</g>
</svg>
