<?xml version="1.0" encoding="utf-8"?>
<!-- Generator: Adobe Illustrator 16.0.4, SVG Export Plug-In . SVG Version: 6.00 Build 0)  -->
<!DOCTYPE svg PUBLIC "-//W3C//DTD SVG 1.1//EN" "http://www.w3.org/Graphics/SVG/1.1/DTD/svg11.dtd">
<svg version="1.1" id="Слой_1" xmlns="http://www.w3.org/2000/svg" xmlns:xlink="http://www.w3.org/1999/xlink" x="0px" y="0px"
	 viewBox="0 0 10.75 10.685" enable-background="new 0 0 10.75 10.685" xml:space="preserve">
<g>
	<defs>
		<rect id="SVGID_1_" y="0" width="10.75" height="10.684"/>
	</defs>
	<clipPath id="SVGID_2_">
		<use xlink:href="#SVGID_1_"  overflow="visible"/>
	</clipPath>

		<path clip-path="url(#SVGID_2_)" fill="none" stroke="#E4EBF7" stroke-width="0.75" stroke-linecap="round" stroke-linejoin="round" stroke-miterlimit="10" d="
		M10.375,8.129c0,1.204-2.239,2.181-5,2.181c-2.761,0-5-0.977-5-2.181"/>

		<path clip-path="url(#SVGID_2_)" fill="none" stroke="#E4EBF7" stroke-width="0.75" stroke-linecap="round" stroke-linejoin="round" stroke-miterlimit="10" d="
		M10.375,6.271c0,1.204-2.239,2.18-5,2.18c-2.761,0-5-0.976-5-2.18"/>

		<path clip-path="url(#SVGID_2_)" fill="none" stroke="#E4EBF7" stroke-width="0.75" stroke-linecap="round" stroke-linejoin="round" stroke-miterlimit="10" d="
		M10.375,4.414c0,1.204-2.239,2.18-5,2.18c-2.761,0-5-0.976-5-2.18"/>

		<ellipse clip-path="url(#SVGID_2_)" fill="none" stroke="#E4EBF7" stroke-width="0.75" stroke-linecap="round" stroke-linejoin="round" stroke-miterlimit="10" cx="5.375" cy="2.556" rx="5" ry="2.18"/>

		<path clip-path="url(#SVGID_2_)" fill="none" stroke="#E4EBF7" stroke-width="0.75" stroke-linecap="round" stroke-linejoin="round" stroke-miterlimit="10" d="
		M0.375,2.556c0-1.204,2.239-2.18,5-2.18c2.761,0,5,0.976,5,2.18"/>

		<path clip-path="url(#SVGID_2_)" fill="none" stroke="#E4EBF7" stroke-width="0.75" stroke-linecap="round" stroke-linejoin="round" stroke-miterlimit="10" d="
		M9.895,3.48c0.309,0.283,0.48,0.599,0.48,0.933"/>

		<path clip-path="url(#SVGID_2_)" fill="none" stroke="#E4EBF7" stroke-width="0.75" stroke-linecap="round" stroke-linejoin="round" stroke-miterlimit="10" d="
		M0.375,4.414c0-0.333,0.172-0.649,0.479-0.932"/>

		<path clip-path="url(#SVGID_2_)" fill="none" stroke="#E4EBF7" stroke-width="0.75" stroke-linecap="round" stroke-linejoin="round" stroke-miterlimit="10" d="
		M9.895,5.338c0.309,0.283,0.48,0.599,0.48,0.933"/>

		<path clip-path="url(#SVGID_2_)" fill="none" stroke="#E4EBF7" stroke-width="0.75" stroke-linecap="round" stroke-linejoin="round" stroke-miterlimit="10" d="
		M0.375,6.271c0-0.333,0.172-0.649,0.479-0.932"/>

		<path clip-path="url(#SVGID_2_)" fill="none" stroke="#E4EBF7" stroke-width="0.75" stroke-linecap="round" stroke-linejoin="round" stroke-miterlimit="10" d="
		M9.895,7.195c0.309,0.283,0.48,0.6,0.48,0.934"/>

		<path clip-path="url(#SVGID_2_)" fill="none" stroke="#E4EBF7" stroke-width="0.75" stroke-linecap="round" stroke-linejoin="round" stroke-miterlimit="10" d="
		M0.375,8.129c0-0.333,0.172-0.648,0.479-0.932"/>
</g>
</svg>
