<?xml version="1.0" encoding="utf-8"?>
<!-- Generator: Adobe Illustrator 16.0.4, SVG Export Plug-In . SVG Version: 6.00 Build 0)  -->
<!DOCTYPE svg PUBLIC "-//W3C//DTD SVG 1.1//EN" "http://www.w3.org/Graphics/SVG/1.1/DTD/svg11.dtd">
<svg version="1.1" id="Слой_1" xmlns="http://www.w3.org/2000/svg" xmlns:xlink="http://www.w3.org/1999/xlink" x="0px" y="0px"
	  viewBox="0 0 10.75 10.75" enable-background="new 0 0 10.75 10.75" xml:space="preserve">
<g>
	<defs>
		<rect id="SVGID_1_" width="10.75" height="10.75"/>
	</defs>
	<clipPath id="SVGID_2_">
		<use xlink:href="#SVGID_1_"  overflow="visible"/>
	</clipPath>

		<path clip-path="url(#SVGID_2_)" fill="none" stroke="#E4EBF7" stroke-width="0.75" stroke-linecap="round" stroke-linejoin="round" stroke-miterlimit="10" d="
		M9.316,5.703v3.852c0,0.453-0.428,0.819-0.953,0.819H2.387c-0.526,0-0.953-0.366-0.953-0.819V5.703"/>

		<path clip-path="url(#SVGID_2_)" fill="none" stroke="#E4EBF7" stroke-width="0.75" stroke-linecap="round" stroke-linejoin="round" stroke-miterlimit="10" d="
		M9.607,5.703H1.143c-0.641,0-0.999-0.574-0.6-0.963L4.774,0.6C5.082,0.3,5.669,0.3,5.976,0.6l4.232,4.14
		C10.605,5.128,10.249,5.703,9.607,5.703z"/>

		<path clip-path="url(#SVGID_2_)" fill="none" stroke="#E4EBF7" stroke-width="0.75" stroke-linecap="round" stroke-linejoin="round" stroke-miterlimit="10" d="
		M5.801,8.877H4.95c-0.438,0-0.797-0.358-0.797-0.796V7.997c0-0.438,0.359-0.796,0.797-0.796h0.851c0.438,0,0.796,0.357,0.796,0.796
		v0.084C6.597,8.519,6.238,8.877,5.801,8.877z"/>

		<path clip-path="url(#SVGID_2_)" fill="none" stroke="#E4EBF7" stroke-width="0.75" stroke-linecap="round" stroke-linejoin="round" stroke-miterlimit="10" d="
		M1.814,3.496V1.562c0-0.234,0.222-0.425,0.493-0.425H2.9c0.271,0,0.493,0.191,0.493,0.425v0.39"/>
</g>
</svg>
