<?xml version="1.0" encoding="utf-8"?>
<!-- Generator: Adobe Illustrator 16.0.4, SVG Export Plug-In . SVG Version: 6.00 Build 0)  -->
<!DOCTYPE svg PUBLIC "-//W3C//DTD SVG 1.1//EN" "http://www.w3.org/Graphics/SVG/1.1/DTD/svg11.dtd">
<svg version="1.1" id="Слой_1" xmlns="http://www.w3.org/2000/svg" xmlns:xlink="http://www.w3.org/1999/xlink" x="0px" y="0px"
	  viewBox="0 0 16 16" enable-background="new 0 0 16 16" xml:space="preserve">
<path fill-rule="evenodd" clip-rule="evenodd" fill="#a8bec9" d="M14.19,6.531C15.35,6.83,16,7.441,16,8c0,0.551-0.65,1.161-1.81,1.461
	C13.72,9.57,13.2,9.641,12.68,9.65c-0.061,0.16-0.15,0.311-0.23,0.461c0.37,0.388,0.709,0.808,0.96,1.228
	c0.61,1.041,0.64,1.92,0.24,2.311c-0.39,0.391-1.28,0.37-2.31-0.24c-0.43-0.25-0.85-0.58-1.23-0.949
	c-0.161,0.08-0.301,0.17-0.47,0.23c0,0.52-0.06,1.039-0.181,1.5C9.16,15.35,8.55,16,8,16c-0.56,0-1.17-0.65-1.47-1.808
	c-0.12-0.461-0.18-0.971-0.2-1.491c-0.17-0.06-0.32-0.15-0.48-0.23c-0.37,0.359-0.79,0.689-1.2,0.939
	c-1.031,0.61-1.92,0.631-2.31,0.24c-0.39-0.391-0.371-1.279,0.24-2.311c0.24-0.41,0.56-0.82,0.919-1.189
	C3.42,9.98,3.31,9.82,3.25,9.641c-0.5-0.01-1-0.071-1.44-0.18C0.64,9.16,0,8.551,0,8c0-0.559,0.64-1.17,1.81-1.469
	C2.25,6.41,2.75,6.349,3.26,6.34C3.32,6.16,3.42,6.009,3.5,5.849C3.14,5.471,2.82,5.061,2.58,4.66c-0.61-1.04-0.63-1.93-0.24-2.32
	C2.73,1.951,3.62,1.97,4.65,2.58c0.41,0.25,0.83,0.58,1.2,0.939c0.16-0.068,0.31-0.17,0.48-0.229c0.02-0.521,0.08-1.031,0.2-1.48
	C6.83,0.641,7.44,0,8,0c0.551,0,1.16,0.641,1.46,1.81C9.58,2.27,9.64,2.791,9.64,3.31c0.169,0.051,0.31,0.151,0.47,0.221
	c0.38-0.371,0.8-0.701,1.23-0.951c1.03-0.609,1.92-0.629,2.31-0.24c0.399,0.39,0.37,1.281-0.24,2.311
	C13.16,5.07,12.82,5.5,12.45,5.88c0.07,0.15,0.16,0.29,0.22,0.449C13.2,6.34,13.72,6.41,14.19,6.531z M7.95,5.031
	c-1.65,0-2.98,1.331-2.98,2.979C4.97,9.66,6.3,11,7.95,11c1.649,0,2.98-1.34,2.98-2.99C10.93,6.361,9.6,5.031,7.95,5.031z"/>
</svg>
