<?xml version="1.0" encoding="iso-8859-1"?>
<!-- Generator: Adobe Illustrator 19.0.0, SVG Export Plug-In . SVG Version: 6.00 Build 0)  -->
<svg version="1.1" id="Capa_1" xmlns="http://www.w3.org/2000/svg" xmlns:xlink="http://www.w3.org/1999/xlink" x="0px" y="0px"
	 viewBox="0 0 490 490" style="enable-background:new 0 0 490 490;" xml:space="preserve">
<g>
	<g>
		<g fill="#a8bec9">
			<path d="M439,133.7H50c-11.6,0-22.8,11.6-20.4,23.5l51,315.4c2,10.2,10.2,17.4,20.4,17.4h287.9c10.2,0,18.4-7.1,19.4-17.4
				l51-315.4C461.2,147.9,453.4,133.7,439,133.7z M371.6,449.2H118.4L74.5,174.6h341L371.6,449.2z"/>
			<path d="M469.6,72.5H318.5V57.2C318.5,25.6,293,0,261.3,0h-32.7c-31.6,0-57.2,25.5-57.2,57.2v15.3h-151C9.2,72.5,0,81.7,0,92.9
				s9.2,20.4,20.4,20.4h449.2c11.2,0,20.4-9.2,20.4-20.4S480.8,72.5,469.6,72.5z M277.7,72.5h-65.3V57.2c0-9.2,7.1-16.3,16.3-16.3
				h32.7c9.2,0,16.3,7.1,16.3,16.3V72.5z"/>
			<path d="M181.7,387.9c11.2,0,20.4-9.2,20.4-20.4V236.8c0-11.2-9.2-20.4-20.4-20.4s-20.4,9.2-20.4,20.4v130.7
				C161.3,378.7,170.5,387.9,181.7,387.9z"/>
			<path d="M298.1,387.9c11.2,0,20.4-9.2,20.4-20.4V236.8c0-11.2-9.2-20.4-20.4-20.4c-11.2,0-20.4,9.2-20.4,20.4v130.7
				C277.7,378.7,286.9,387.9,298.1,387.9z"/>
		</g>
	</g>
</g>
</svg>
