<?xml version="1.0" encoding="utf-8"?>
<!-- Generator: Adobe Illustrator 16.0.4, SVG Export Plug-In . SVG Version: 6.00 Build 0)  -->
<!DOCTYPE svg PUBLIC "-//W3C//DTD SVG 1.1//EN" "http://www.w3.org/Graphics/SVG/1.1/DTD/svg11.dtd">
<svg version="1.1" id="Слой_1" xmlns="http://www.w3.org/2000/svg" xmlns:xlink="http://www.w3.org/1999/xlink" x="0px" y="0px"
	 viewBox="0 0 16 14" enable-background="new 0 0 16 14" xml:space="preserve">
<path fill="#a8bec9" d="M7.014,12.003H6.192c-2.37-0.388-4.185-2.452-4.185-4.933c0-0.831,0.213-1.608,0.574-2.297l0.613,0.849
	C3.64,6.241,4.602,6.069,4.807,5.334l0.488-1.756l0.673-2.422c0.162-0.58-0.275-1.155-0.877-1.154L2.717,0.006L0.918,0.009
	C0.178,0.01-0.25,0.85,0.183,1.451l1.128,1.563C0.494,4.159,0.009,5.557,0.009,7.071c0,3.499,2.565,6.397,5.916,6.915
	c0.091,0.014,0.18,0.01,0.267-0.001v0.012h0.822C7.559,13.997,8,13.555,8,13.01v-0.02C8,12.445,7.559,12.003,7.014,12.003z"/>
<path fill="#a8bec9" d="M14.688,10.985c0.817-1.144,1.302-2.542,1.302-4.057c0-3.499-2.565-6.397-5.916-6.915
	C9.983,0,9.895,0.003,9.808,0.015V0.002H8.986C8.441,0.002,8,0.444,8,0.989v0.02c0,0.545,0.441,0.987,0.986,0.987h0.822
	c2.371,0.388,4.185,2.452,4.185,4.933c0,0.831-0.213,1.608-0.573,2.298l-0.613-0.85c-0.446-0.618-1.409-0.446-1.613,0.289
	l-0.488,1.756l-0.674,2.422c-0.161,0.581,0.275,1.155,0.877,1.154l2.374-0.003l1.798-0.003c0.741-0.001,1.169-0.841,0.736-1.442
	L14.688,10.985z"/>
</svg>
