<?xml version="1.0" encoding="utf-8"?>
<!-- Generator: Adobe Illustrator 16.0.4, SVG Export Plug-In . SVG Version: 6.00 Build 0)  -->
<!DOCTYPE svg PUBLIC "-//W3C//DTD SVG 1.1//EN" "http://www.w3.org/Graphics/SVG/1.1/DTD/svg11.dtd">
<svg version="1.1" id="Слой_1" xmlns="http://www.w3.org/2000/svg" xmlns:xlink="http://www.w3.org/1999/xlink" x="0px" y="0px"
	 width="85.04px" height="56.69px" viewBox="0 0 85.04 56.69" enable-background="new 0 0 85.04 56.69" xml:space="preserve">
<path fill="#a8bec9" d="M36.438,36.5L36.438,36.5c-0.518,0-0.938-0.42-0.938-0.938V22.438c0-0.518,0.42-0.938,0.938-0.938l0,0
	c0.518,0,0.938,0.42,0.938,0.938v13.125C37.375,36.08,36.955,36.5,36.438,36.5z"/>
<path fill="#a8bec9" d="M49.562,21.5h-9.375c-0.518,0-0.938,0.419-0.938,0.938v7.5c0,0.518,0.42,0.938,0.938,0.938h9.375
	c0.518,0,0.938-0.42,0.938-0.938v-7.5C50.5,21.919,50.08,21.5,49.562,21.5z M48.625,28.531c0,0.259-0.21,0.469-0.469,0.469h-6.562
	c-0.259,0-0.469-0.21-0.469-0.469v-4.688c0-0.259,0.21-0.469,0.469-0.469h6.562c0.259,0,0.469,0.21,0.469,0.469V28.531z"/>
</svg>
