<?xml version="1.0" encoding="utf-8"?>
<!-- Generator: Adobe Illustrator 16.0.4, SVG Export Plug-In . SVG Version: 6.00 Build 0)  -->
<!DOCTYPE svg PUBLIC "-//W3C//DTD SVG 1.1//EN" "http://www.w3.org/Graphics/SVG/1.1/DTD/svg11.dtd">
<svg version="1.1" id="Слой_1" xmlns="http://www.w3.org/2000/svg" xmlns:xlink="http://www.w3.org/1999/xlink" x="0px" y="0px"
	 width="14px" height="14px" viewBox="0 0 14 14" enable-background="new 0 0 14 14" xml:space="preserve">
<path fill-rule="evenodd" clip-rule="evenodd" fill="#a8bec9" d="M11.055,13.366L8.239,10.57c-0.794,0.426-1.684,0.687-2.634,0.687
	C2.505,11.257,0,8.74,0,5.633C0,2.525,2.505,0,5.605,0c3.083,0,5.597,2.526,5.597,5.633c0,0.954-0.259,1.841-0.682,2.629
	l2.841,2.812c0.639,0.634,0.639,1.658,0,2.292C12.73,14,11.694,14,11.055,13.366z M5.605,1.71c-2.142,0-3.878,1.745-3.878,3.897
	c0,2.152,1.736,3.888,3.878,3.888c2.133,0,3.869-1.736,3.869-3.888C9.474,3.455,7.738,1.71,5.605,1.71z"/>
</svg>
