<?xml version="1.0" encoding="utf-8"?>
<!-- Generator: Adobe Illustrator 16.0.4, SVG Export Plug-In . SVG Version: 6.00 Build 0)  -->
<!DOCTYPE svg PUBLIC "-//W3C//DTD SVG 1.1//EN" "http://www.w3.org/Graphics/SVG/1.1/DTD/svg11.dtd">
<svg version="1.1" id="Слой_1" xmlns="http://www.w3.org/2000/svg" xmlns:xlink="http://www.w3.org/1999/xlink" x="0px" y="0px"
	 viewBox="0 0 18 14" enable-background="new 0 0 18 14" xml:space="preserve">
  <path fill="#a8bec9" d="M16,2v10H2V2H16 M17,0H1C0.448,0,0,0.448,0,1v12c0,0.552,0.448,1,1,1h16c0.552,0,1-0.448,1-1V1
  	C18,0.448,17.552,0,17,0L17,0z"/>
  <path fill-rule="evenodd" clip-rule="evenodd" fill="#a8bec9" d="M6,14H4V0h2V14z"/>
  <path fill-rule="evenodd" clip-rule="evenodd" fill="#a8bec9" d="M14,14h-2V0h2V14z"/>
  <path fill-rule="evenodd" clip-rule="evenodd" fill="#a8bec9" d="M4,6H2V4h2V6z"/>
  <path fill-rule="evenodd" clip-rule="evenodd" fill="#a8bec9" d="M4,10H2V8h2V10z"/>
  <path fill-rule="evenodd" clip-rule="evenodd" fill="#a8bec9" d="M16,6h-2V4h2V6z"/>
  <path fill-rule="evenodd" clip-rule="evenodd" fill="#a8bec9" d="M16,10h-2V8h2V10z"/>
</svg>
