<?xml version="1.0" encoding="utf-8"?>
<!-- Generator: Adobe Illustrator 16.0.4, SVG Export Plug-In . SVG Version: 6.00 Build 0)  -->
<!DOCTYPE svg PUBLIC "-//W3C//DTD SVG 1.1//EN" "http://www.w3.org/Graphics/SVG/1.1/DTD/svg11.dtd">
<svg version="1.1" id="Слой_1" xmlns="http://www.w3.org/2000/svg" xmlns:xlink="http://www.w3.org/1999/xlink" x="0px" y="0px"
	  viewBox="0 0 10.75 10.75" enable-background="new 0 0 10.75 10.75" xml:space="preserve">
<g>
	<defs>
		<rect id="SVGID_1_" width="10.75" height="10.75"/>
	</defs>
	<clipPath id="SVGID_2_">
		<use xlink:href="#SVGID_1_"  overflow="visible"/>
	</clipPath>

		<path clip-path="url(#SVGID_2_)" fill="none" stroke="#E4EBF7" stroke-width="0.75" stroke-linecap="round" stroke-linejoin="round" stroke-miterlimit="10" d="
		M3.985,4.634H1.03c-0.36,0-0.655-0.295-0.655-0.655V1.03c0-0.36,0.295-0.655,0.655-0.655h2.955c0.36,0,0.655,0.295,0.655,0.655
		v2.949C4.64,4.339,4.345,4.634,3.985,4.634z"/>

		<path clip-path="url(#SVGID_2_)" fill="none" stroke="#E4EBF7" stroke-width="0.75" stroke-linecap="round" stroke-linejoin="round" stroke-miterlimit="10" d="
		M9.72,4.634H6.765c-0.359,0-0.654-0.295-0.654-0.655V1.03c0-0.36,0.295-0.655,0.654-0.655H9.72c0.36,0,0.655,0.295,0.655,0.655
		v2.949C10.375,4.339,10.08,4.634,9.72,4.634z"/>

		<path clip-path="url(#SVGID_2_)" fill="none" stroke="#E4EBF7" stroke-width="0.75" stroke-linecap="round" stroke-linejoin="round" stroke-miterlimit="10" d="
		M3.985,10.375H1.03c-0.36,0-0.655-0.295-0.655-0.655V6.771c0-0.36,0.295-0.655,0.655-0.655h2.955c0.36,0,0.655,0.295,0.655,0.655
		V9.72C4.64,10.08,4.345,10.375,3.985,10.375z"/>

		<path clip-path="url(#SVGID_2_)" fill="none" stroke="#E4EBF7" stroke-width="0.75" stroke-linecap="round" stroke-linejoin="round" stroke-miterlimit="10" d="
		M9.72,10.375H6.765c-0.359,0-0.654-0.295-0.654-0.655V6.771c0-0.36,0.295-0.655,0.654-0.655H9.72c0.36,0,0.655,0.295,0.655,0.655
		V9.72C10.375,10.08,10.08,10.375,9.72,10.375z"/>
</g>
</svg>
